HIERARCHY
ROOT Hips
{
	OFFSET 0.000000 0.000000 0.000000
	CHANNELS 6 Xposition Yposition Zposition Zrotation Yrotation Xrotation 
	JOINT LHipJoint
	{
		OFFSET 0.000000 0.000000 0.000000
		CHANNELS 3 Zrotation Yrotation Xrotation
		JOINT LeftUpLeg
		{
			OFFSET 1.363060 -1.794630 0.839290
			CHANNELS 3 Zrotation Yrotation Xrotation
			JOINT LeftLeg
			{
				OFFSET 2.448110 -6.726130 0.000000
				CHANNELS 3 Zrotation Yrotation Xrotation
				JOINT LeftFoot
				{
					OFFSET 2.562200 -7.039590 0.000000
					CHANNELS 3 Zrotation Yrotation Xrotation
					JOINT LeftToeBase
					{
						OFFSET 0.157640 -0.433110 2.322550
						CHANNELS 3 Zrotation Yrotation Xrotation
						End Site
						{
							OFFSET 0.000000 0.000000 0.000000
						}
					}
				}
			}
		}
	}
	JOINT RHipJoint
	{
		OFFSET 0.000000 0.000000 0.000000
		CHANNELS 3 Zrotation Yrotation Xrotation
		JOINT RightUpLeg
		{
			OFFSET -1.305520 -1.794630 0.839290
			CHANNELS 3 Zrotation Yrotation Xrotation
			JOINT RightLeg
			{
				OFFSET -2.542530 -6.985550 0.000000
				CHANNELS 3 Zrotation Yrotation Xrotation
				JOINT RightFoot
				{
					OFFSET -2.568260 -7.056230 0.000000
					CHANNELS 3 Zrotation Yrotation Xrotation
					JOINT RightToeBase
					{
						OFFSET -0.164730 -0.452590 2.363150
						CHANNELS 3 Zrotation Yrotation Xrotation
						End Site
						{
							OFFSET 0.000000 0.000000 0.000000
						}
					}
				}
			}
		}
	}
}
MOTION
Frames: 11
Frame Time: 0.008333
-11.079578 17.094094 -1.485826 135.730795 86.662105 160.924129 -11.593383 1.808981 -2.205608 -5.414356 2.256302 -12.822178 -0.913993 1.530012 29.430277 0.292733 -1.781180 10.008280 -0.547000 0.000000 -82.485600 7.718719 0.030939 1.713807 7.811339 9.086773 -41.012030 2.440557 -0.258435 15.190844 -0.602724 -2.237140 -0.539048 -0.917500 0.000000 -25.014800
-10.888234 17.075641 -1.463725 140.726727 86.838363 165.595051 -11.697377 1.788908 -2.322541 -4.776279 2.850249 -13.062530 -0.743347 1.660288 31.282500 0.349811 -2.202621 11.615473 -0.775400 0.000001 -82.922400 7.644215 -0.053322 1.714043 8.096908 9.959045 -40.920068 2.309546 -0.502820 17.760226 -0.784352 -2.749432 -2.013050 -0.877800 0.000000 -21.291800
-10.698862 17.063258 -1.441138 146.849079 87.018135 171.379974 -11.774690 1.768215 -2.437255 -4.123627 3.427939 -13.395238 -0.572872 1.792860 33.217277 0.435457 -2.534790 13.408972 -1.018300 -0.000000 -82.481900 7.602622 -0.105045 1.676667 8.490316 10.671219 -40.666663 2.209333 -0.709600 20.064740 -0.956106 -3.209583 -3.529898 -0.800300 0.000001 -18.456100
-10.511604 17.056781 -1.417775 153.702471 87.194107 177.891709 -11.831031 1.755018 -2.542617 -3.487758 3.967769 -13.824161 -0.414878 1.929735 35.216181 0.551179 -2.704504 15.294984 -1.239500 -0.000001 -81.041400 7.588351 -0.120517 1.599744 8.975297 11.199048 -40.239227 2.140520 -0.871655 22.043834 -1.112807 -3.609631 -5.029480 -0.692600 -0.000000 -16.506800
-10.326443 17.055812 -1.393391 160.591161 87.350617 -175.560114 -11.885962 1.749776 -2.632903 -2.897269 4.457582 -14.350357 -0.277065 2.071278 37.263402 0.693930 -2.642748 17.160263 -1.389599 -0.000000 -78.559800 7.581636 -0.107800 1.484165 9.527986 11.525573 -39.638284 2.101415 -0.986274 23.666702 -1.250315 -3.940813 -6.455355 -0.564501 -0.000000 -15.370200
-10.143372 17.059729 -1.367646 166.623999 87.455802 -169.864904 -11.955748 1.741580 -2.704756 -2.379386 4.882267 -14.968754 -0.157939 2.212461 39.345323 0.856809 -2.284914 18.882861 -1.410300 0.000000 -75.108800 7.564561 -0.087174 1.335737 10.115674 11.635151 -38.882442 2.089270 -1.058908 24.929545 -1.365485 -4.193586 -7.756823 -0.427200 -0.000000 -14.938100
-9.962122 17.067908 -1.340237 171.193016 87.483463 -165.626365 -12.037101 1.717890 -2.758778 -1.949098 5.230660 -15.673474 -0.051380 2.346779 41.446538 1.031693 -1.582153 20.350068 -1.248700 0.000000 -70.893800 7.537525 -0.077560 1.164144 10.710462 11.525350 -38.004100 2.100699 -1.100207 25.847327 -1.455672 -4.362050 -8.887264 -0.292900 -0.000000 -15.076800
-9.782541 17.079692 -1.310885 174.149395 87.429848 -162.988204 -12.114200 1.675211 -2.796769 -1.613276 5.499626 -16.458269 0.047373 2.471308 43.545207 1.212127 -0.510925 21.472547 -0.872100 0.000000 -66.232800 7.514231 -0.086431 0.979842 11.289612 11.213084 -37.040816 2.130724 -1.120296 26.453310 -1.517727 -4.441779 -9.809084 -0.172900 -0.000000 -15.626000
-9.604310 17.094544 -1.279519 175.670132 87.310587 -161.765199 -12.173094 1.617159 -2.820452 -1.376715 5.692480 -17.318226 0.140723 2.586422 45.612458 1.394330 0.919240 22.192639 -0.278600 0.000000 -61.491000 7.507848 -0.112332 0.791988 11.832304 10.732432 -36.032275 2.172995 -1.126630 26.796625 -1.548741 -4.429789 -10.498611 -0.076600 -0.000001 -16.405699
-9.427207 17.112139 -1.246186 176.066841 87.149335 -161.636502 -12.207058 1.548813 -2.831211 -1.242629 5.816167 -18.247865 0.230016 2.693065 47.616247 1.576373 2.661497 22.484570 0.499099 -0.000000 -56.993100 7.524898 -0.151283 0.609380 12.318947 10.130143 -35.018039 2.220846 -1.124771 26.935787 -1.547729 -4.327601 -10.950072 -0.008900 -0.000000 -17.236800
-9.251002 17.132262 -1.211155 175.647910 86.970895 -162.283866 -12.215107 1.473523 -2.830794 -1.211091 5.880049 -19.241161 0.315900 2.791291 49.523987 1.756946 4.635864 22.350505 1.399300 -0.000000 -52.958100 7.565919 -0.199833 0.440409 12.734355 9.460020 -34.034621 2.268261 -1.119389 26.931969 -1.516349 -4.142551 -11.174835 0.029600 -0.000000 -17.969800
